<?xml version="1.0" encoding="UTF-8" standalone="no"?>
<!DOCTYPE svg PUBLIC "-//W3C//DTD SVG 1.1//EN" "http://www.w3.org/Graphics/SVG/1.1/DTD/svg11.dtd">
<svg xmlns="http://www.w3.org/2000/svg" version="1.1" viewBox="0.00 0.00 500.00 500.00">
<g stroke-width="2.00" fill="none" stroke-linecap="butt">
<path stroke="#808080" vector-effect="non-scaling-stroke" d="
  M 124.22 161.70
  L 124.17 388.62
  A 0.38 0.37 -90.0 0 0 124.54 389.00
  Q 194.78 389.00 264.63 389.00
  Q 278.16 389.00 290.40 386.35
  Q 348.14 373.87 379.97 325.14
  C 401.47 292.23 407.68 250.13 396.79 212.42
  Q 383.97 168.02 347.91 140.04
  C 323.11 120.80 292.16 110.98 260.75 110.97
  Q 216.82 110.96 173.01 111.02"
/>
<path stroke="#3a3275" vector-effect="non-scaling-stroke" d="
  M 173.01 111.02
  L 124.68 111.04
  A 0.64 0.64 0.0 0 0 124.04 111.68
  L 124.22 161.70"
/>
<path stroke="#b9b2f5" vector-effect="non-scaling-stroke" d="
  M 173.01 111.02
  L 173.02 161.33
  A 0.42 0.41 0.0 0 1 172.60 161.74
  L 124.22 161.70"
/>
<path stroke="#808080" vector-effect="non-scaling-stroke" d="
  M 340.69 287.90
  C 352.96 262.28 352.04 232.52 338.64 207.63
  C 325.94 184.04 301.70 167.08 275.45 162.98
  Q 268.23 161.85 257.14 161.90
  Q 213.47 162.09 174.17 161.89
  A 0.45 0.44 0.0 0 0 173.72 162.33
  C 173.77 189.83 173.94 217.37 173.58 244.89
  Q 173.48 252.20 174.17 259.47
  Q 175.75 276.09 183.87 291.13
  Q 201.02 322.88 236.22 333.99
  Q 253.56 339.46 271.30 337.22
  Q 306.67 332.75 329.68 305.31
  Q 335.90 297.90 340.69 287.90"
/>
</g>
<path fill="#000000" d="
  M 0.00 0.00
  L 500.00 0.00
  L 500.00 500.00
  L 0.00 500.00
  L 0.00 0.00
  Z
  M 124.22 161.70
  L 124.17 388.62
  A 0.38 0.37 -90.0 0 0 124.54 389.00
  Q 194.78 389.00 264.63 389.00
  Q 278.16 389.00 290.40 386.35
  Q 348.14 373.87 379.97 325.14
  C 401.47 292.23 407.68 250.13 396.79 212.42
  Q 383.97 168.02 347.91 140.04
  C 323.11 120.80 292.16 110.98 260.75 110.97
  Q 216.82 110.96 173.01 111.02
  L 124.68 111.04
  A 0.64 0.64 0.0 0 0 124.04 111.68
  L 124.22 161.70
  Z"
/>
<path fill="#7364ea" d="
  M 173.01 111.02
  L 173.02 161.33
  A 0.42 0.41 0.0 0 1 172.60 161.74
  L 124.22 161.70
  L 124.04 111.68
  A 0.64 0.64 0.0 0 1 124.68 111.04
  L 173.01 111.02
  Z"
/>
<path fill="#ffffff" d="
  M 173.01 111.02
  Q 216.82 110.96 260.75 110.97
  C 292.16 110.98 323.11 120.80 347.91 140.04
  Q 383.97 168.02 396.79 212.42
  C 407.68 250.13 401.47 292.23 379.97 325.14
  Q 348.14 373.87 290.40 386.35
  Q 278.16 389.00 264.63 389.00
  Q 194.78 389.00 124.54 389.00
  A 0.38 0.37 90.0 0 1 124.17 388.62
  L 124.22 161.70
  L 172.60 161.74
  A 0.42 0.41 -0.0 0 0 173.02 161.33
  L 173.01 111.02
  Z
  M 340.69 287.90
  C 352.96 262.28 352.04 232.52 338.64 207.63
  C 325.94 184.04 301.70 167.08 275.45 162.98
  Q 268.23 161.85 257.14 161.90
  Q 213.47 162.09 174.17 161.89
  A 0.45 0.44 0.0 0 0 173.72 162.33
  C 173.77 189.83 173.94 217.37 173.58 244.89
  Q 173.48 252.20 174.17 259.47
  Q 175.75 276.09 183.87 291.13
  Q 201.02 322.88 236.22 333.99
  Q 253.56 339.46 271.30 337.22
  Q 306.67 332.75 329.68 305.31
  Q 335.90 297.90 340.69 287.90
  Z"
/>
<path fill="#000000" d="
  M 340.69 287.90
  Q 335.90 297.90 329.68 305.31
  Q 306.67 332.75 271.30 337.22
  Q 253.56 339.46 236.22 333.99
  Q 201.02 322.88 183.87 291.13
  Q 175.75 276.09 174.17 259.47
  Q 173.48 252.20 173.58 244.89
  C 173.94 217.37 173.77 189.83 173.72 162.33
  A 0.45 0.44 -0.0 0 1 174.17 161.89
  Q 213.47 162.09 257.14 161.90
  Q 268.23 161.85 275.45 162.98
  C 301.70 167.08 325.94 184.04 338.64 207.63
  C 352.04 232.52 352.96 262.28 340.69 287.90
  Z"
/>
</svg>
