<?xml version="1.0" encoding="UTF-8" standalone="no"?>
<!DOCTYPE svg PUBLIC "-//W3C//DTD SVG 1.1//EN" "http://www.w3.org/Graphics/SVG/1.1/DTD/svg11.dtd">
<svg xmlns="http://www.w3.org/2000/svg" version="1.1" viewBox="0.00 0.00 500.00 500.00">
<g stroke-width="2.00" fill="none" stroke-linecap="butt">
<path stroke="#808080" vector-effect="non-scaling-stroke" d="
  M 129.98 161.69
  L 130.02 388.38
  Q 130.02 388.99 130.62 388.99
  Q 203.25 389.03 271.88 388.97
  Q 283.04 388.96 294.62 386.64
  C 320.65 381.44 345.10 369.52 364.05 351.31
  Q 391.71 324.72 402.33 288.48
  Q 406.11 275.57 407.00 263.36
  C 407.90 251.10 407.75 238.13 405.59 225.94
  Q 403.95 216.67 401.28 208.38
  Q 385.83 160.54 344.03 133.31
  Q 335.42 127.70 326.02 123.58
  Q 297.72 111.15 270.25 111.07
  Q 224.73 110.94 178.80 111.02"
/>
<path stroke="#3a3275" vector-effect="non-scaling-stroke" d="
  M 178.80 111.02
  L 130.51 111.04
  Q 130.01 111.04 130.01 111.54
  L 129.98 161.69"
/>
<path stroke="#bab2f4" vector-effect="non-scaling-stroke" d="
  M 178.80 111.02
  L 178.94 160.08
  Q 178.94 161.84 177.19 161.83
  L 129.98 161.69"
/>
<path stroke="#808080" vector-effect="non-scaling-stroke" d="
  M 310.03 173.09
  C 297.67 165.95 283.96 162.44 269.24 161.91
  Q 269.22 161.91 179.90 161.97
  A 0.70 0.70 0.0 0 0 179.20 162.67
  Q 179.43 199.23 179.14 239.02
  Q 179.04 251.98 179.73 258.72
  Q 183.29 293.87 211.14 317.56
  Q 222.50 327.22 238.53 332.91
  C 252.57 337.90 268.64 339.25 283.13 336.34
  C 314.78 329.99 340.10 308.43 350.44 277.91
  C 355.38 263.35 356.47 246.69 353.23 232.10
  Q 344.56 193.01 310.03 173.09"
/>
</g>
<path fill="#000000" d="
  M 22.64 353.55
  Q 12.66 331.37 7.38 308.80
  Q 5.58 301.11 3.64 289.92
  Q 1.89 279.87 1.37 270.80
  Q 0.14 249.39 0.46 242.72
  Q 0.81 235.30 1.35 227.42
  Q 1.92 219.21 3.07 212.15
  C 5.64 196.38 9.08 180.58 14.83 165.03
  Q 41.96 91.60 105.22 46.20
  Q 129.02 29.12 154.45 18.77
  Q 182.69 7.29 211.10 3.02
  C 212.64 2.79 214.31 2.93 215.74 2.45
  Q 216.65 2.14 217.62 2.07
  Q 240.63 0.36 254.45 0.34
  Q 261.05 0.33 282.70 2.16
  Q 282.95 2.18 283.17 2.32
  Q 283.52 2.54 283.94 2.59
  Q 291.52 3.47 294.24 3.96
  Q 338.49 12.04 376.30 34.57
  Q 396.58 46.65 416.59 64.31
  Q 436.92 82.25 452.77 105.19
  Q 456.08 109.97 459.55 114.91
  Q 463.46 120.47 465.98 124.85
  Q 494.61 174.53 498.83 231.49
  Q 499.50 240.57 499.26 257.50
  Q 499.11 267.89 498.00 277.45
  Q 492.04 328.49 466.89 373.24
  Q 463.76 378.81 458.79 385.99
  C 454.96 391.53 451.06 397.41 447.12 402.43
  Q 427.73 427.15 403.04 446.56
  C 399.75 449.14 393.73 454.30 388.65 457.65
  Q 334.02 493.77 268.50 498.96
  Q 262.27 499.45 239.00 499.11
  Q 222.19 498.87 203.02 495.19
  Q 147.71 484.58 103.58 452.25
  Q 84.83 438.51 66.18 418.71
  Q 38.94 389.78 22.64 353.55
  Z
  M 129.98 161.69
  L 130.02 388.38
  Q 130.02 388.99 130.62 388.99
  Q 203.25 389.03 271.88 388.97
  Q 283.04 388.96 294.62 386.64
  C 320.65 381.44 345.10 369.52 364.05 351.31
  Q 391.71 324.72 402.33 288.48
  Q 406.11 275.57 407.00 263.36
  C 407.90 251.10 407.75 238.13 405.59 225.94
  Q 403.95 216.67 401.28 208.38
  Q 385.83 160.54 344.03 133.31
  Q 335.42 127.70 326.02 123.58
  Q 297.72 111.15 270.25 111.07
  Q 224.73 110.94 178.80 111.02
  L 130.51 111.04
  Q 130.01 111.04 130.01 111.54
  L 129.98 161.69
  Z"
/>
<path fill="#7464e9" d="
  M 178.80 111.02
  L 178.94 160.08
  Q 178.94 161.84 177.19 161.83
  L 129.98 161.69
  L 130.01 111.54
  Q 130.01 111.04 130.51 111.04
  L 178.80 111.02
  Z"
/>
<path fill="#ffffff" d="
  M 178.80 111.02
  Q 224.73 110.94 270.25 111.07
  Q 297.72 111.15 326.02 123.58
  Q 335.42 127.70 344.03 133.31
  Q 385.83 160.54 401.28 208.38
  Q 403.95 216.67 405.59 225.94
  C 407.75 238.13 407.90 251.10 407.00 263.36
  Q 406.11 275.57 402.33 288.48
  Q 391.71 324.72 364.05 351.31
  C 345.10 369.52 320.65 381.44 294.62 386.64
  Q 283.04 388.96 271.88 388.97
  Q 203.25 389.03 130.62 388.99
  Q 130.02 388.99 130.02 388.38
  L 129.98 161.69
  L 177.19 161.83
  Q 178.94 161.84 178.94 160.08
  L 178.80 111.02
  Z
  M 310.03 173.09
  C 297.67 165.95 283.96 162.44 269.24 161.91
  Q 269.22 161.91 179.90 161.97
  A 0.70 0.70 0.0 0 0 179.20 162.67
  Q 179.43 199.23 179.14 239.02
  Q 179.04 251.98 179.73 258.72
  Q 183.29 293.87 211.14 317.56
  Q 222.50 327.22 238.53 332.91
  C 252.57 337.90 268.64 339.25 283.13 336.34
  C 314.78 329.99 340.10 308.43 350.44 277.91
  C 355.38 263.35 356.47 246.69 353.23 232.10
  Q 344.56 193.01 310.03 173.09
  Z"
/>
<path fill="#000000" d="
  M 310.03 173.09
  Q 344.56 193.01 353.23 232.10
  C 356.47 246.69 355.38 263.35 350.44 277.91
  C 340.10 308.43 314.78 329.99 283.13 336.34
  C 268.64 339.25 252.57 337.90 238.53 332.91
  Q 222.50 327.22 211.14 317.56
  Q 183.29 293.87 179.73 258.72
  Q 179.04 251.98 179.14 239.02
  Q 179.43 199.23 179.20 162.67
  A 0.70 0.70 0.0 0 1 179.90 161.97
  Q 269.22 161.91 269.24 161.91
  C 283.96 162.44 297.67 165.95 310.03 173.09
  Z"
/>
</svg>
